<?xml version="1.0" encoding="UTF-8" ?>
<!DOCTYPE svg PUBLIC "-//W3C//DTD SVG 1.1//EN" "http://www.w3.org/Graphics/SVG/1.1/DTD/svg11.dtd">
<svg width="200pt" height="200pt" viewBox="0 0 200 200" version="1.1" xmlns="http://www.w3.org/2000/svg">
<g id="#00c940ff">
<path fill="#00c940" opacity="1.00" d=" M 27.04 5.04 C 42.60 5.04 58.17 5.02 73.74 5.05 C 73.71 44.03 73.75 83.01 73.72 121.99 C 73.97 132.23 81.03 141.88 90.73 145.21 C 101.34 149.27 114.35 145.06 120.59 135.58 C 126.46 127.26 126.57 115.42 120.92 106.97 C 115.95 99.10 106.37 94.50 97.12 95.41 C 90.14 95.98 83.59 99.64 79.21 105.06 C 79.06 87.26 79.26 69.45 79.11 51.64 C 95.20 46.71 113.00 47.82 128.44 54.47 C 146.30 62.02 160.82 77.08 167.73 95.20 C 171.30 104.94 173.54 115.35 172.75 125.78 C 171.23 143.38 163.85 160.72 151.04 173.08 C 137.49 186.70 118.24 194.67 98.98 194.01 C 81.75 194.27 64.71 187.48 51.83 176.16 C 36.34 162.74 27.03 142.50 27.04 122.00 C 27.03 83.01 27.04 44.03 27.04 5.04 Z" />
</g>
</svg>
